<svg xmlns="http://www.w3.org/2000/svg" viewBox="0 0 595.09 595.09"><defs><style>.cls-1,.cls-2,.cls-3{fill:none;}.cls-1,.cls-2{stroke:#000;stroke-miterlimit:10;}.cls-1{stroke-width:7.76px;}.cls-2{stroke-width:20px;}</style></defs><title>Logo</title><g id="Layer_2" data-name="Layer 2"><g id="Layer_1-2" data-name="Layer 1"><path d="M141.28,552.46V505.29h6.58v20.38H160V505.29h6.58v47.17H160V530.39H147.86v22.07Z"/><path d="M186,553a13.78,13.78,0,0,1-7.63-1.87,10.24,10.24,0,0,1-4.08-5.33,24.51,24.51,0,0,1-1.22-8.12V519.79a23,23,0,0,1,1.25-8,10,10,0,0,1,4.08-5.12,14.08,14.08,0,0,1,7.6-1.78,13.77,13.77,0,0,1,7.57,1.81,10.22,10.22,0,0,1,4,5.12,22.78,22.78,0,0,1,1.25,8v17.94a23.51,23.51,0,0,1-1.25,8,10.67,10.67,0,0,1-4,5.33A13.33,13.33,0,0,1,186,553Zm0-5.19a6.21,6.21,0,0,0,4-1.08,5.29,5.29,0,0,0,1.8-3,19.89,19.89,0,0,0,.47-4.57V518.45a19,19,0,0,0-.47-4.51A5,5,0,0,0,190,511a6.48,6.48,0,0,0-4-1,6.6,6.6,0,0,0-4,1,5,5,0,0,0-1.83,2.91,18.54,18.54,0,0,0-.47,4.51v20.68a19.35,19.35,0,0,0,.47,4.57,5.22,5.22,0,0,0,1.83,3A6.32,6.32,0,0,0,186,547.8Z"/><path d="M205.23,552.46l.87-47.17h6.46l8.33,38.26,8.39-38.26h6.4l.88,47.17h-5.3l-.53-34.24-8,34.24H219l-7.92-34.24-.53,34.24Z"/><path d="M243.78,552.46V505.29h18.28v4.89h-11.7v15.61h9.49v4.66h-9.49v17.29h11.82v4.72Z"/><path d="M267.48,552.46V505.29h6.58v42.45h12.06v4.72Z"/><path d="M290.6,552.46V505.29h18.28v4.89h-11.7v15.61h9.49v4.66h-9.49v17.29H309v4.72Z"/><path d="M325.42,553a12.31,12.31,0,0,1-6.78-1.75,11,11,0,0,1-4.11-4.84,20.1,20.1,0,0,1-1.63-7.16l5.83-1.57a26.18,26.18,0,0,0,.78,4.83,8.68,8.68,0,0,0,2,3.82,5.09,5.09,0,0,0,3.9,1.48,5,5,0,0,0,3.88-1.42,5.9,5.9,0,0,0,1.31-4.11,8.39,8.39,0,0,0-1.46-5.15,27.39,27.39,0,0,0-3.67-3.94l-7.92-7a13.28,13.28,0,0,1-3.43-4.46,14.27,14.27,0,0,1-1.11-6q0-5.17,3-8a11.17,11.17,0,0,1,8.09-2.86,15.26,15.26,0,0,1,4.92.73,8.67,8.67,0,0,1,3.56,2.24,11,11,0,0,1,2.27,3.82,21.49,21.49,0,0,1,1.13,5.38l-5.59,1.52a22.51,22.51,0,0,0-.7-4.28,6.36,6.36,0,0,0-1.83-3.15,5.42,5.42,0,0,0-3.76-1.19,5.29,5.29,0,0,0-3.81,1.31,5.11,5.11,0,0,0-1.37,3.87,7.57,7.57,0,0,0,.73,3.55,10.17,10.17,0,0,0,2.36,2.86l8,7a24.89,24.89,0,0,1,4.71,5.56,14,14,0,0,1,2,7.66,11.87,11.87,0,0,1-1.45,6,9.86,9.86,0,0,1-4,3.88A12.39,12.39,0,0,1,325.42,553Z"/><path d="M353,553a12.34,12.34,0,0,1-6.79-1.75,11.05,11.05,0,0,1-4.1-4.84,19.89,19.89,0,0,1-1.63-7.16l5.82-1.57a26.18,26.18,0,0,0,.79,4.83,8.58,8.58,0,0,0,2,3.82,5.09,5.09,0,0,0,3.9,1.48,5,5,0,0,0,3.87-1.42,5.9,5.9,0,0,0,1.31-4.11,8.39,8.39,0,0,0-1.45-5.15,28.58,28.58,0,0,0-3.67-3.94l-7.92-7a13.32,13.32,0,0,1-3.44-4.46,14.27,14.27,0,0,1-1.11-6q0-5.17,3-8a11.17,11.17,0,0,1,8.1-2.86,15.34,15.34,0,0,1,4.92.73,8.63,8.63,0,0,1,3.55,2.24,11,11,0,0,1,2.27,3.82,21.47,21.47,0,0,1,1.14,5.38l-5.59,1.52a23.33,23.33,0,0,0-.7-4.28,6.44,6.44,0,0,0-1.83-3.15,5.44,5.44,0,0,0-3.76-1.19,5.33,5.33,0,0,0-3.82,1.31,5.11,5.11,0,0,0-1.36,3.87,7.7,7.7,0,0,0,.72,3.55,10.53,10.53,0,0,0,2.36,2.86l8,7a24.66,24.66,0,0,1,4.72,5.56,14,14,0,0,1,2,7.66,11.88,11.88,0,0,1-1.46,6,9.86,9.86,0,0,1-4,3.88A12.37,12.37,0,0,1,353,553Z"/><path d="M380.16,552.46l10-47.17h6.35l10.07,47.17h-6.23l-2.15-11.88h-9.61l-2.27,11.88Zm9.32-16.6h7.86l-4-21.25Z"/><path d="M411.38,552.46V505.29h11.7a13,13,0,0,1,6.79,1.54,9,9,0,0,1,3.7,4.46,19.13,19.13,0,0,1,1.16,7.05,14.89,14.89,0,0,1-1.31,6.46,9.48,9.48,0,0,1-3.87,4.22,12.64,12.64,0,0,1-6.41,1.49H418v22ZM418,525.79h3a12.55,12.55,0,0,0,4.48-.64,4.08,4.08,0,0,0,2.33-2.24,11.56,11.56,0,0,0,.7-4.52,20.66,20.66,0,0,0-.5-5.18,3.6,3.6,0,0,0-2.06-2.5,12.69,12.69,0,0,0-4.89-.7H418Z"/><path d="M439.33,552.46V505.29H451a12.94,12.94,0,0,1,6.78,1.54,9,9,0,0,1,3.7,4.46,18.92,18.92,0,0,1,1.16,7.05,14.75,14.75,0,0,1-1.31,6.46A9.48,9.48,0,0,1,457.5,529a12.61,12.61,0,0,1-6.41,1.49h-5.18v22Zm6.58-26.67h3a12.51,12.51,0,0,0,4.48-.64,4.08,4.08,0,0,0,2.33-2.24,11.56,11.56,0,0,0,.7-4.52,20.75,20.75,0,0,0-.49-5.18,3.61,3.61,0,0,0-2.07-2.5A12.69,12.69,0,0,0,449,510h-3.09Z"/><line class="cls-1" x1="372.3" y1="529.4" x2="264.27" y2="529.4"/><path d="M145.43,438.09V146.49h40.68v126H261v-126h40.68v291.6H261V301.65H186.11V438.09Z"/><path d="M347.38,438.09V146.49h40.68V408.93h74.52v29.16Z"/><rect class="cls-2" x="87.02" y="45.92" width="421.05" height="421.05"/><rect class="cls-3" width="595.09" height="595.09"/></g></g></svg>